<?xml version="1.0" encoding="UTF-8"?>
<svg width="188px" height="233px" viewBox="0 0 188 233" version="1.1" xmlns="http://www.w3.org/2000/svg" xmlns:xlink="http://www.w3.org/1999/xlink">
    <!-- Generator: Sketch 48.1 (47250) - http://www.bohemiancoding.com/sketch -->
    <title>TSocLogo</title>
    <desc>Created with Sketch.</desc>
    <defs></defs>
    <g id="V3" stroke="none" stroke-width="1" fill="none" fill-rule="evenodd" transform="translate(-486.000000, -396.000000)" stroke-linecap="round" stroke-linejoin="round">
        <g id="Logo" transform="translate(489.000000, 399.000000)" stroke="#FFFFFF" stroke-width="6">
            <g id="TSocLogo">
                <polyline id="Stroke-1" points="27 92 154 92 154 124.680995 126.85258 124.680995 126.85258 117.656109 110.002457 117.656109 110.002457 201.954751 118.427518 201.954751 118.427518 227 63.1965602 227 63.1965602 201.954751 72.8697789 201.954751 72.8697789 117.656109 56.3316953 117.656109 56.3316953 124.680995 27 124.680995 27 92"></polyline>
                <path d="M0,1.56 L25.4241908,71.448 L23.8739353,74.568 L23.8739353,78 C23.8739353,78 68.9346962,77.688 159.056218,77.064 C159.262919,74.776 159.366269,73.632 159.366269,73.632 L156.88586,70.824 L182,1.248 L140.763203,13.728 L130.531516,50.544 L126.500852,51.168 C126.500852,51.168 118.72353,61.711104 113.478705,57.408 C108.233881,53.104896 112.384845,37.480872 113.788756,35.256 C115.192668,33.031128 122.087584,23.434632 122.160136,23.4 C122.232688,23.365368 122.160136,14.04 122.160136,14.04 L94.5655877,0 L88.0545145,0 L60.4599659,14.04 L60.4599659,23.4 C60.4599659,23.4 68.9531959,34.741512 69.1413969,36.192 C69.329598,37.642488 75.3945077,48.498216 69.7614991,57.408 C66.1174685,63.171576 56.7529949,53.162304 55.8091993,51.792 L52.7086882,51.168 L41.8568995,13.728 L0,1.56 Z" id="Stroke-2"></path>
            </g>
        </g>
    </g>
</svg>