<?xml version="1.0" encoding="UTF-8"?>
<svg width="42px" height="52px" viewBox="0 0 42 52" version="1.1" xmlns="http://www.w3.org/2000/svg" xmlns:xlink="http://www.w3.org/1999/xlink">
    <!-- Generator: Sketch 47.1 (45422) - http://www.bohemiancoding.com/sketch -->
    <title>TSocLogo</title>
    <desc>Created with Sketch.</desc>
    <defs></defs>
    <g id="Welcome" stroke="none" stroke-width="1" fill="none" fill-rule="evenodd" stroke-linecap="round" stroke-linejoin="round">
        <g id="V3" transform="translate(-22.000000, -40.000000)" stroke="#FFFFFF">
            <g id="Nav" transform="translate(0.000000, 41.000000)">
                <g id="TSocLogo" transform="translate(23.000000, 0.000000)">
                    <polyline id="Stroke-1" points="6 20 34 20 34 27.2624434 28.014742 27.2624434 28.014742 25.7013575 24.2997543 25.7013575 24.2997543 44.4343891 26.1572482 44.4343891 26.1572482 50 13.980344 50 13.980344 44.4343891 16.1130221 44.4343891 16.1130221 25.7013575 12.4668305 25.7013575 12.4668305 27.2624434 6 27.2624434 6 20"></polyline>
                    <path d="M0,0.34 L5.58773424,15.572 L5.24701874,16.252 L5.24701874,17 C5.24701874,17 34.9349915,16.76438 34.9574106,16.796 C34.9798296,16.82762 35.0255537,16.048 35.0255537,16.048 L34.4804089,15.436 L40,0.272 L30.9369676,2.992 L28.6882453,11.016 L27.802385,11.152 C27.802385,11.152 26.0930835,13.449856 24.9403748,12.512 C23.7876661,11.574144 24.6999659,8.168908 25.0085179,7.684 C25.3170698,7.199092 26.8324361,5.107548 26.8483816,5.1 C26.8643271,5.092452 26.8483816,3.06 26.8483816,3.06 L20.7836457,0 L19.3526405,0 L13.2879046,3.06 L13.2879046,5.1 C13.2879046,5.1 15.1545486,7.571868 15.1959114,7.888 C15.2372743,8.204132 16.5702215,10.570124 15.3321976,12.512 C14.5313118,13.768164 12.4731857,11.586656 12.2657581,11.288 L11.5843271,11.152 L9.19931857,2.992 L0,0.34 Z" id="Stroke-2"></path>
                </g>
            </g>
        </g>
    </g>
</svg>